<svg width="323" height="323" viewBox="0 0 323 323" fill="none" xmlns="http://www.w3.org/2000/svg">
<circle cx="161.5" cy="161.5" r="160" fill="#EEEBDB" stroke="#DBD9CA" stroke-width="3"/>
<path d="M150.5 142.5V102.5L145 104.5L139 111L135.5 120.5V130L139 136.5L150.5 142.5Z" stroke="black" stroke-width="3" stroke-linecap="round"/>
<path d="M176 218V178L181.5 180L187.5 186.5L191 196V205.5L187.5 212L176 218Z" stroke="black" stroke-width="3" stroke-linecap="round"/>
<path d="M150 53V76L136 79.5L126 87L116 98L110.5 110L108.5 124.5L110.5 138.5L116 150L126 160L136 166L150 169.5V221L141.5 216.5L136 209.5L132 200.5L131 194L105 200L107 209.5L111.5 219.5L119 229.5L125 236.5L133.5 241.5L141.5 245L150 246.5V269.5H174.5V246.5L183.5 245L193.5 240L203 233L209 227L213.5 219.5L217.5 207V195L215 182.5L211.5 175.5L207 168.5L198.5 161L187.5 154.5L174.5 150V101.5L181.5 105.5L187.5 112.5L191.5 121L217 115L215 108L211.5 101.5L204.5 92L191.5 81.5L174.5 76V53H150Z" stroke="black" stroke-width="3" stroke-linecap="round"/>
</svg>
