<svg width="460" height="420" viewBox="0 0 460 420" fill="none" xmlns="http://www.w3.org/2000/svg">
<g filter="url(#filter0_f_8_59)">
<path d="M321.108 220.531C312.169 219.806 302.435 209.262 303.752 192.851C305.069 176.439 316.358 167.6 325.297 168.325C334.237 169.05 343.97 179.595 342.654 196.006C341.336 212.418 330.048 221.256 321.108 220.531Z" stroke="white" stroke-width="20"/>
</g>
<g filter="url(#filter1_f_8_59)">
<path d="M263.241 168.41C254.009 167.661 243.344 155.925 244.868 136.929C246.393 117.933 258.791 108.069 268.023 108.818C277.255 109.567 287.92 121.302 286.396 140.298C284.871 159.294 272.473 169.158 263.241 168.41Z" stroke="white" stroke-width="20"/>
</g>
<g filter="url(#filter2_f_8_59)">
<path d="M190.703 108.771C199.923 107.891 212.459 117.578 214.25 136.55C216.042 155.522 205.543 167.408 196.323 168.288C187.102 169.168 174.567 159.481 172.775 140.509C170.983 121.537 181.482 109.652 190.703 108.771Z" stroke="white" stroke-width="20"/>
</g>
<g filter="url(#filter3_f_8_59)">
<path d="M277.857 222.463C273.915 217.367 258.307 190.43 231.758 189.46L227.413 189.217L222.586 189.46L215.345 191.158L208.587 194.313L202.795 197.953L196.278 203.049L191.451 208.874L186.382 214.698L182.279 220.765L173.107 232.655L162.005 243.09L152.35 254.253L148.006 260.563L144.868 266.872L142.213 273.182L140.524 280.705V286.772L141.489 292.838L142.696 298.177L144.868 302.303L149.454 308.855L154.764 313.951L160.315 317.591L165.625 319.775L170.211 321.474L176.245 323.658H183.003L192.416 322.444L199.898 320.503L211.242 315.65L224.758 311.767L231.758 310.554L239.481 311.767L245.515 313.951L254.204 318.562L262.169 321.474L275.926 324.629L283.65 325.357L289.201 324.629L295.959 322.444L301.028 319.532L309.475 310.554L314.785 299.633L317.44 286.529L316.716 273.667L313.578 262.262L308.269 254.011L303.2 248.429L291.615 238.965L277.857 222.463Z" stroke="white" stroke-width="20"/>
</g>
<g filter="url(#filter4_f_8_59)">
<path d="M132.351 168.262C141.246 167.104 152.946 175.385 155.05 191.712C157.153 208.039 147.938 219.045 139.042 220.203C130.147 221.361 118.448 213.079 116.344 196.752C114.241 180.426 123.455 169.421 132.351 168.262Z" stroke="white" stroke-width="20"/>
</g>
<g filter="url(#filter5_f_8_59)">
<path d="M231.235 106.3L236.672 81.7593L247.547 58.7849L264.353 41.5541L284.619 27.4561L305.874 20.6682L325.645 17.5354L351.843 19.1018L371.12 23.8011L388.915 32.6776L401.272 39.9876L416.101 53.5634L425.987 67.1392L434.884 86.4586L440.322 105.256L441.805 128.752L440.322 155.382L437.85 171.046L434.39 183.578L429.942 196.109L423.516 210.207L414.124 227.96L403.25 245.713L389.904 264.51L377.546 279.653L347.394 310.981L309.334 344.399L272.756 373.117L232.718 402.357" stroke="white" stroke-width="15" stroke-linecap="round"/>
<path d="M238.48 103.888C239.45 107.913 236.972 111.969 232.945 112.947C228.918 113.925 224.868 111.454 223.898 107.429L231.189 105.659L238.48 103.888ZM238.517 396.194C241.915 398.556 242.75 403.23 240.382 406.632C238.013 410.035 233.339 410.879 229.941 408.517L234.229 402.356L238.517 396.194ZM87.7435 25.4424L84.331 18.7701L85.0727 18.3897L85.8794 18.1811L87.7435 25.4424ZM175.719 27.5875L177.861 20.3957L178.933 20.7132L179.866 21.3299L175.719 27.5875ZM213.88 58.3309L219.13 52.9648L220.028 53.8439L220.59 54.9686L213.88 58.3309ZM196.534 41.3592L200.68 35.1015L201.275 35.4947L201.784 35.9931L196.534 41.3592ZM225.286 81.1622L231.996 77.7999L232.377 78.5626L232.577 79.3917L225.286 81.1622ZM133.868 18.3659L133.312 10.8874L134.114 10.8261L134.912 10.9366L133.868 18.3659ZM154.012 21.1584L155.056 13.7292L155.614 13.8066L156.154 13.9666L154.012 21.1584ZM107.265 20.3951L105.401 13.1339L106.045 12.9672L106.709 12.9166L107.265 20.3951ZM32.6432 69.8329L25.8004 66.7763L26.1071 66.092L26.543 65.4816L32.6432 69.8329ZM57.346 42.1914L52.2362 36.7112L52.8044 36.1813L53.4688 35.7787L57.346 42.1914ZM69.7936 34.6494L65.9165 28.2367L66.1442 28.0987L66.3811 27.9772L69.7936 34.6494ZM42.4826 56.0555L36.3824 51.7042L36.821 51.0901L37.3729 50.5753L42.4826 56.0555ZM18.6592 108.28L11.1682 107.93L11.2088 107.097L11.4312 106.293L18.6592 108.28ZM23.8968 89.3485L16.6689 87.3614L16.8208 86.8121L17.054 86.2919L23.8968 89.3485ZM17.5129 131.851L10.0324 132.404L10 131.953L10.022 131.502L17.5129 131.851ZM85.1422 281.937L79.8565 287.269L79.6385 287.052L79.4389 286.819L85.1422 281.937ZM37.3526 213.154L30.7993 216.814L30.6909 216.62L30.5943 216.419L37.3526 213.154ZM19.4291 158.51L12.0426 159.823L11.9761 159.445L11.9486 159.062L19.4291 158.51ZM25.8909 186.66L18.8744 189.323L18.7783 189.068L18.7009 188.807L25.8909 186.66ZM22.1817 174.164L14.9916 176.311L14.8695 175.899L14.7952 175.476L22.1817 174.164ZM58.4963 248.378L52.4783 252.866L52.3257 252.661L52.1874 252.446L58.4963 248.378ZM47.1709 230.779L40.862 234.847L40.7333 234.647L40.6175 234.439L47.1709 230.779ZM30.605 199.14L23.8465 202.404L23.7043 202.109L23.5885 201.802L30.605 199.14ZM72.3497 266.981L66.6464 271.862L66.4824 271.67L66.3317 271.468L72.3497 266.981ZM155.467 345.621L150.968 351.631L150.804 351.508L150.646 351.376L155.467 345.621ZM116.27 312.802L111.449 318.557L111.207 318.355L110.984 318.133L116.27 312.802ZM193.086 373.757L188.797 379.919L188.691 379.844L188.587 379.767L193.086 373.757ZM213.88 58.3309L208.63 63.697L191.284 46.7253L196.534 41.3592L201.784 35.9931L219.13 52.9648L213.88 58.3309ZM196.534 41.3592L192.387 47.6168L171.573 33.8451L175.719 27.5875L179.866 21.3299L200.68 35.1015L196.534 41.3592ZM231.189 105.659L223.898 107.429L217.994 82.9328L225.286 81.1622L232.577 79.3917L238.48 103.888L231.189 105.659ZM225.286 81.1622L218.575 84.5246L207.17 61.6933L213.88 58.3309L220.59 54.9686L231.996 77.7999L225.286 81.1622ZM175.719 27.5875L173.577 34.7793L151.869 28.3502L154.012 21.1584L156.154 13.9666L177.861 20.3957L175.719 27.5875ZM154.012 21.1584L152.968 28.5876L132.824 25.7951L133.868 18.3659L134.912 10.9366L155.056 13.7292L154.012 21.1584ZM133.868 18.3659L134.424 25.8444L107.821 27.8736L107.265 20.3951L106.709 12.9166L133.312 10.8874L133.868 18.3659ZM107.265 20.3951L109.129 27.6564L89.6076 32.7036L87.7435 25.4424L85.8794 18.1811L105.401 13.1339L107.265 20.3951ZM87.7435 25.4424L91.156 32.1146L73.2061 41.3217L69.7936 34.6494L66.3811 27.9772L84.331 18.7701L87.7435 25.4424ZM69.7936 34.6494L73.6707 41.0622L61.2231 48.6042L57.346 42.1914L53.4688 35.7787L65.9165 28.2367L69.7936 34.6494ZM57.346 42.1914L62.4557 47.6716L47.5923 61.5357L42.4826 56.0555L37.3729 50.5753L52.2362 36.7112L57.346 42.1914ZM42.4826 56.0555L48.5828 60.4068L38.7433 74.1842L32.6432 69.8329L26.543 65.4816L36.3824 51.7042L42.4826 56.0555ZM32.6432 69.8329L39.486 72.8895L30.7396 92.4051L23.8968 89.3485L17.054 86.2919L25.8004 66.7763L32.6432 69.8329ZM23.8968 89.3485L31.1247 91.3355L25.8871 110.267L18.6592 108.28L11.4312 106.293L16.6689 87.3614L23.8968 89.3485ZM18.6592 108.28L26.1501 108.63L25.0038 132.201L17.5129 131.851L10.022 131.502L11.1682 107.93L18.6592 108.28ZM17.5129 131.851L24.9933 131.299L26.9095 157.958L19.4291 158.51L11.9486 159.062L10.0324 132.404L17.5129 131.851ZM19.4291 158.51L26.8156 157.197L29.5682 172.851L22.1817 174.164L14.7952 175.476L12.0426 159.823L19.4291 158.51ZM22.1817 174.164L29.3717 172.017L33.081 184.513L25.8909 186.66L18.7009 188.807L14.9916 176.311L22.1817 174.164ZM37.3526 213.154L43.906 209.495L53.7242 227.12L47.1709 230.779L40.6175 234.439L30.7993 216.814L37.3526 213.154ZM47.1709 230.779L53.4798 226.712L64.8052 244.311L58.4963 248.378L52.1874 252.446L40.862 234.847L47.1709 230.779ZM25.8909 186.66L32.9074 183.998L37.6214 196.478L30.605 199.14L23.5885 201.802L18.8744 189.323L25.8909 186.66ZM30.605 199.14L37.3634 195.875L44.1111 209.89L37.3526 213.154L30.5943 216.419L23.8465 202.404L30.605 199.14ZM58.4963 248.378L64.5142 243.891L78.3677 262.493L72.3497 266.981L66.3317 271.468L52.4783 252.866L58.4963 248.378ZM72.3497 266.981L78.053 262.099L90.8455 277.056L85.1422 281.937L79.4389 286.819L66.6464 271.862L72.3497 266.981ZM85.1422 281.937L90.4278 276.606L121.555 307.471L116.27 312.802L110.984 318.133L79.8565 287.269L85.1422 281.937ZM116.27 312.802L121.09 307.048L160.288 339.867L155.467 345.621L150.646 351.376L111.449 318.557L116.27 312.802ZM155.467 345.621L159.967 339.612L197.585 367.748L193.086 373.757L188.587 379.767L150.968 351.631L155.467 345.621ZM193.086 373.757L197.374 367.596L238.517 396.194L234.229 402.356L229.941 408.517L188.797 379.919L193.086 373.757Z" fill="white"/>
</g>
<defs>
<filter id="filter0_f_8_59" x="278.641" y="143.277" width="89.1241" height="102.302" filterUnits="userSpaceOnUse" color-interpolation-filters="sRGB">
<feFlood flood-opacity="0" result="BackgroundImageFix"/>
<feBlend mode="normal" in="SourceGraphic" in2="BackgroundImageFix" result="shape"/>
<feGaussianBlur stdDeviation="7.5" result="effect1_foregroundBlur_8_59"/>
</filter>
<filter id="filter1_f_8_59" x="219.734" y="83.771" width="91.7971" height="109.686" filterUnits="userSpaceOnUse" color-interpolation-filters="sRGB">
<feFlood flood-opacity="0" result="BackgroundImageFix"/>
<feBlend mode="normal" in="SourceGraphic" in2="BackgroundImageFix" result="shape"/>
<feGaussianBlur stdDeviation="7.5" result="effect1_foregroundBlur_8_59"/>
</filter>
<filter id="filter2_f_8_59" x="147.589" y="83.7058" width="91.8483" height="109.648" filterUnits="userSpaceOnUse" color-interpolation-filters="sRGB">
<feFlood flood-opacity="0" result="BackgroundImageFix"/>
<feBlend mode="normal" in="SourceGraphic" in2="BackgroundImageFix" result="shape"/>
<feGaussianBlur stdDeviation="7.5" result="effect1_foregroundBlur_8_59"/>
</filter>
<filter id="filter3_f_8_59" x="115.524" y="164.203" width="226.973" height="186.215" filterUnits="userSpaceOnUse" color-interpolation-filters="sRGB">
<feFlood flood-opacity="0" result="BackgroundImageFix"/>
<feBlend mode="normal" in="SourceGraphic" in2="BackgroundImageFix" result="shape"/>
<feGaussianBlur stdDeviation="7.5" result="effect1_foregroundBlur_8_59"/>
</filter>
<filter id="filter4_f_8_59" x="91.0608" y="143.139" width="89.2723" height="102.186" filterUnits="userSpaceOnUse" color-interpolation-filters="sRGB">
<feFlood flood-opacity="0" result="BackgroundImageFix"/>
<feBlend mode="normal" in="SourceGraphic" in2="BackgroundImageFix" result="shape"/>
<feGaussianBlur stdDeviation="7.5" result="effect1_foregroundBlur_8_59"/>
</filter>
<filter id="filter5_f_8_59" x="0" y="0" width="459.318" height="419.857" filterUnits="userSpaceOnUse" color-interpolation-filters="sRGB">
<feFlood flood-opacity="0" result="BackgroundImageFix"/>
<feBlend mode="normal" in="SourceGraphic" in2="BackgroundImageFix" result="shape"/>
<feGaussianBlur stdDeviation="5" result="effect1_foregroundBlur_8_59"/>
</filter>
</defs>
</svg>
