<svg width="323" height="323" viewBox="0 0 323 323" fill="none" xmlns="http://www.w3.org/2000/svg">
<circle cx="161.5" cy="161.5" r="161.5" fill="#5B9FCA"/>
<g filter="url(#filter0_f_17_72)">
<path d="M248.988 171.157C241.22 170.499 231.753 160.547 233.031 143.937C234.309 127.328 245.176 119.096 252.944 119.753C260.711 120.41 270.178 130.362 268.9 146.971C267.622 163.581 256.756 171.813 248.988 171.157Z" stroke="white" stroke-width="20"/>
</g>
<g filter="url(#filter1_f_17_72)">
<path d="M194.109 119.61C189.949 119.259 185.556 116.619 182.08 111.058C178.605 105.497 176.5 97.5707 177.188 88.6344C177.876 79.6979 181.165 72.227 185.446 67.3226C189.727 62.4172 194.467 60.5504 198.626 60.9022C202.786 61.2541 207.179 63.8935 210.655 69.4551C214.13 75.0155 216.235 82.9428 215.547 91.8793C214.859 100.816 211.569 108.286 207.289 113.19C203.008 118.096 198.268 119.962 194.109 119.61Z" stroke="white" stroke-width="20"/>
</g>
<g filter="url(#filter2_f_17_72)">
<path d="M125.318 60.8569C129.474 60.4433 134.238 62.2398 138.585 67.0808C142.931 71.9209 146.321 79.3417 147.129 88.2665C147.937 97.1909 145.94 105.147 142.54 110.759C139.14 116.371 134.783 119.076 130.627 119.49C126.472 119.904 121.707 118.106 117.36 113.265C113.014 108.425 109.624 101.005 108.815 92.0806C108.007 83.1559 110.005 75.1986 113.405 69.5875C116.805 63.9754 121.162 61.2706 125.318 60.8569Z" stroke="white" stroke-width="20"/>
</g>
<g filter="url(#filter3_f_17_72)">
<path d="M207.961 173.18C204.223 168.14 189.421 141.501 164.242 140.541L160.122 140.301L155.544 140.541L148.677 142.221L142.268 145.341L136.775 148.941L130.595 153.98L126.017 159.74L121.21 165.5L117.319 171.5L108.621 183.26L98.0914 193.579L88.9356 204.619L84.8155 210.859L81.8398 217.099L79.322 223.338L77.7197 230.778V236.778L78.6353 242.778L79.7798 248.058L81.8398 252.138L86.1889 258.617L91.2246 263.657L96.4892 267.257L101.525 269.417L105.874 271.097L111.596 273.257H118.005L126.932 272.057L134.028 270.137L144.786 265.337L157.604 261.497L164.242 260.297L171.567 261.497L177.289 263.657L185.53 268.217L193.083 271.097L206.13 274.217L213.455 274.937L218.719 274.217L225.128 272.057L229.935 269.177L237.947 260.297L242.982 249.498L245.5 236.538L244.813 223.818L241.838 212.539L236.802 204.379L231.995 198.859L221.008 189.499L207.961 173.18Z" stroke="white" stroke-width="20"/>
</g>
<g filter="url(#filter4_f_17_72)">
<path d="M69.984 119.693C77.7239 118.642 88.9502 126.322 90.9905 142.837C93.0306 159.351 84.0411 169.777 76.3012 170.828C68.5612 171.879 57.334 164.199 55.2937 147.685C53.2536 131.17 62.244 120.744 69.984 119.693Z" stroke="white" stroke-width="20"/>
</g>
<defs>
<filter id="filter0_f_17_72" x="207.93" y="94.7026" width="86.071" height="101.504" filterUnits="userSpaceOnUse" color-interpolation-filters="sRGB">
<feFlood flood-opacity="0" result="BackgroundImageFix"/>
<feBlend mode="normal" in="SourceGraphic" in2="BackgroundImageFix" result="shape"/>
<feGaussianBlur stdDeviation="7.5" result="effect1_foregroundBlur_17_72"/>
</filter>
<filter id="filter1_f_17_72" x="152.064" y="35.8536" width="88.606" height="108.806" filterUnits="userSpaceOnUse" color-interpolation-filters="sRGB">
<feFlood flood-opacity="0" result="BackgroundImageFix"/>
<feBlend mode="normal" in="SourceGraphic" in2="BackgroundImageFix" result="shape"/>
<feGaussianBlur stdDeviation="7.5" result="effect1_foregroundBlur_17_72"/>
</filter>
<filter id="filter2_f_17_72" x="83.645" y="35.7892" width="88.6545" height="108.768" filterUnits="userSpaceOnUse" color-interpolation-filters="sRGB">
<feFlood flood-opacity="0" result="BackgroundImageFix"/>
<feBlend mode="normal" in="SourceGraphic" in2="BackgroundImageFix" result="shape"/>
<feGaussianBlur stdDeviation="7.5" result="effect1_foregroundBlur_17_72"/>
</filter>
<filter id="filter3_f_17_72" x="52.7197" y="115.286" width="217.833" height="184.718" filterUnits="userSpaceOnUse" color-interpolation-filters="sRGB">
<feFlood flood-opacity="0" result="BackgroundImageFix"/>
<feBlend mode="normal" in="SourceGraphic" in2="BackgroundImageFix" result="shape"/>
<feGaussianBlur stdDeviation="7.5" result="effect1_foregroundBlur_17_72"/>
</filter>
<filter id="filter4_f_17_72" x="30.0364" y="94.5663" width="86.2117" height="101.389" filterUnits="userSpaceOnUse" color-interpolation-filters="sRGB">
<feFlood flood-opacity="0" result="BackgroundImageFix"/>
<feBlend mode="normal" in="SourceGraphic" in2="BackgroundImageFix" result="shape"/>
<feGaussianBlur stdDeviation="7.5" result="effect1_foregroundBlur_17_72"/>
</filter>
</defs>
</svg>
