<svg width="239" height="220" viewBox="0 0 239 220" fill="none" xmlns="http://www.w3.org/2000/svg">
<path d="M119.909 54.4795L122.057 43.7799C122.625 40.9474 123.474 38.1785 124.591 35.5141C126.904 29.9977 130.329 25.017 134.652 20.8827L136.451 19.1616C140.677 15.1204 145.565 11.8349 150.903 9.44822C157.461 6.51575 164.564 5 171.749 5H177.103C180.816 5 184.521 5.36424 188.163 6.0875C196.943 7.83094 205.186 11.6253 212.221 17.161L214.256 18.763C219.365 22.7829 223.65 27.7495 226.879 33.3911C230.492 39.7045 232.701 46.7228 233.356 53.9674L234 61.0959V67.4855C234 75.275 232.989 83.0315 230.992 90.5607L229.75 95.2426C227.859 102.369 225.101 109.236 221.535 115.689L218.136 121.842C215.615 126.404 212.703 130.739 209.432 134.798L192.785 155.452L160.851 185.658L119.909 215" stroke="black" stroke-width="10" stroke-linecap="round"/>
<path d="M119.091 54.4795L116.943 43.7799C116.375 40.9474 115.526 38.1785 114.409 35.5141C112.096 29.9977 108.671 25.017 104.348 20.8827L102.549 19.1616C98.3232 15.1204 93.435 11.8349 88.0973 9.44822C81.5389 6.51575 74.4356 5 67.2515 5H61.897C58.1836 5 54.4791 5.36424 50.8369 6.0875C42.057 7.83094 33.8136 11.6253 26.7792 17.161L24.7436 18.763C19.6354 22.7829 15.3498 27.7495 12.1211 33.3911C8.50798 39.7045 6.29878 46.7228 5.64414 53.9674L5 61.0959V67.4855C5 75.275 6.01125 83.0315 8.0084 90.5607L9.25033 95.2426C11.1406 102.369 13.8995 109.236 17.4648 115.689L20.8639 121.842C23.3845 126.404 26.2967 130.739 29.5676 134.798L46.2145 155.452L78.149 185.658L119.091 215" stroke="black" stroke-width="10" stroke-linecap="round"/>
</svg>
