<svg width="323" height="323" viewBox="0 0 323 323" fill="none" xmlns="http://www.w3.org/2000/svg">
<circle cx="161.5" cy="161.5" r="160" fill="#EEEBDB" stroke="#DBD9CA" stroke-width="3"/>
<path d="M161.909 119.479L164.057 108.78C164.625 105.947 165.474 103.178 166.591 100.514C168.904 94.9977 172.329 90.017 176.652 85.8827L178.451 84.1616C182.677 80.1204 187.565 76.8349 192.903 74.4482C199.461 71.5157 206.564 70 213.749 70H219.103C222.816 70 226.521 70.3642 230.163 71.0875C238.943 72.8309 247.186 76.6253 254.221 82.161L256.256 83.763C261.365 87.7829 265.65 92.7495 268.879 98.3911C272.492 104.704 274.701 111.723 275.356 118.967L276 126.096V132.485C276 140.275 274.989 148.032 272.992 155.561L271.75 160.243C269.859 167.369 267.101 174.236 263.535 180.689L260.136 186.842C257.615 191.404 254.703 195.739 251.432 199.798L234.785 220.452L202.851 250.658L161.909 280" stroke="black" stroke-width="3" stroke-linecap="round"/>
<path d="M161.091 119.479L158.943 108.78C158.375 105.947 157.526 103.178 156.409 100.514C154.096 94.9977 150.671 90.017 146.348 85.8827L144.549 84.1616C140.323 80.1204 135.435 76.8349 130.097 74.4482C123.539 71.5157 116.436 70 109.251 70H103.897C100.184 70 96.4791 70.3642 92.8369 71.0875C84.057 72.8309 75.8136 76.6253 68.7792 82.161L66.7436 83.763C61.6354 87.7829 57.3498 92.7495 54.1211 98.3911C50.508 104.704 48.2988 111.723 47.6441 118.967L47 126.096V132.485C47 140.275 48.0112 148.032 50.0084 155.561L51.2503 160.243C53.1406 167.369 55.8995 174.236 59.4648 180.689L62.8639 186.842C65.3845 191.404 68.2967 195.739 71.5676 199.798L88.2145 220.452L120.149 250.658L161.091 280" stroke="black" stroke-width="3" stroke-linecap="round"/>
</svg>
