<svg width="290" height="292" viewBox="0 0 290 292" fill="none" xmlns="http://www.w3.org/2000/svg">
<path d="M144.359 5.50122L130.321 12.052C129.683 12.3498 129.094 12.7421 128.573 13.2157L112.859 27.5012L74.3589 71.5012L6.85136 144.795C5.29091 146.489 4.66378 148.843 5.17424 151.089L6.16904 155.466C6.60821 157.398 7.84579 159.054 9.57475 160.022L17.7652 164.609C18.8102 165.194 19.9878 165.501 21.1854 165.501H30.8589C34.7249 165.501 37.8589 168.635 37.8589 172.501V273.112C37.8589 274.661 38.3727 276.166 39.3199 277.392L44.2572 283.781C45.5827 285.497 47.6283 286.501 49.7962 286.501H78.3589H103.622C105.382 286.501 107.077 285.838 108.37 284.645L110.607 282.58C112.042 281.255 112.859 279.39 112.859 277.436V221.684C112.859 220.901 112.99 220.124 113.247 219.384L115.224 213.702C116.203 210.887 118.856 209.001 121.835 209.001H132.859H144.359" stroke="black" stroke-width="10" stroke-linecap="round"/>
<path d="M144.859 5.00122L158.896 11.552C159.534 11.8498 160.124 12.2421 160.645 12.7157L176.359 27.0012L214.859 71.0012L282.366 144.295C283.927 145.989 284.554 148.343 284.044 150.589L283.049 154.966C282.61 156.898 281.372 158.554 279.643 159.522L271.453 164.109C270.408 164.694 269.23 165.001 268.032 165.001H258.359C254.493 165.001 251.359 168.135 251.359 172.001V272.612C251.359 274.161 250.845 275.666 249.898 276.892L244.961 283.281C243.635 284.997 241.589 286.001 239.422 286.001H210.859H185.596C183.836 286.001 182.141 285.338 180.848 284.145L178.611 282.08C177.175 280.755 176.359 278.89 176.359 276.936V221.184C176.359 220.401 176.228 219.624 175.97 218.884L173.994 213.202C173.015 210.387 170.362 208.501 167.382 208.501H156.359H144.859" stroke="black" stroke-width="10" stroke-linecap="round"/>
</svg>
