<svg width="509" height="502" viewBox="0 0 509 502" fill="none" xmlns="http://www.w3.org/2000/svg">
<rect width="509" height="502" rx="20" fill="#CCC3C3"/>
<path d="M262.473 358.217H243.773L221.82 394.607L178.728 377.947L188.078 332.35L173.849 319.636L139.294 327.089L121 283.685L150.677 263.956V235.897L121 214.853L139.294 172.764L178.728 182.847L192.143 168.379L183.2 124.537L225.479 107L243.773 144.266H262.473L285.239 107L323.86 124.537L315.323 168.379L333.617 182.847L368.985 172.764L387.686 219.237L355.57 239.843V263.956L387.686 283.685L368.985 332.35L327.925 319.636L315.323 332.35L327.925 377.947L285.239 394.607L262.473 358.217Z" stroke="black" stroke-width="5"/>
<path d="M255.562 199.815C281.344 199.815 302.66 222.991 302.66 252.118C302.66 281.245 281.344 304.422 255.562 304.422C229.78 304.422 208.465 281.245 208.465 252.118C208.466 222.992 229.78 199.816 255.562 199.815Z" stroke="black" stroke-width="5"/>
</svg>
