<svg width="323" height="323" viewBox="0 0 323 323" fill="none" xmlns="http://www.w3.org/2000/svg">
<circle cx="161.5" cy="161.5" r="161.5" fill="#D7AAD1"/>
<path d="M161.909 105.479L164.057 94.7799C164.625 91.9474 165.474 89.1785 166.591 86.5141C168.904 80.9977 172.329 76.017 176.652 71.8827L178.451 70.1616C182.677 66.1204 187.565 62.8349 192.903 60.4482C199.461 57.5157 206.564 56 213.749 56H219.103C222.816 56 226.521 56.3642 230.163 57.0875C238.943 58.8309 247.186 62.6253 254.221 68.161L256.256 69.763C261.365 73.7829 265.65 78.7495 268.879 84.3911C272.492 90.7045 274.701 97.7228 275.356 104.967L276 112.096V118.485C276 126.275 274.989 134.032 272.992 141.561L271.75 146.243C269.859 153.369 267.101 160.236 263.535 166.689L260.136 172.842C257.615 177.404 254.703 181.739 251.432 185.798L234.785 206.452L202.851 236.658L161.909 266" stroke="black" stroke-width="3" stroke-linecap="round"/>
<path d="M161.091 105.479L158.943 94.7799C158.375 91.9474 157.526 89.1785 156.409 86.5141C154.096 80.9977 150.671 76.017 146.348 71.8827L144.549 70.1616C140.323 66.1204 135.435 62.8349 130.097 60.4482C123.539 57.5157 116.436 56 109.251 56H103.897C100.184 56 96.4791 56.3642 92.8369 57.0875C84.057 58.8309 75.8136 62.6253 68.7792 68.161L66.7436 69.763C61.6354 73.7829 57.3498 78.7495 54.1211 84.3911C50.508 90.7045 48.2988 97.7228 47.6441 104.967L47 112.096V118.485C47 126.275 48.0112 134.032 50.0084 141.561L51.2503 146.243C53.1406 153.369 55.8995 160.236 59.4648 166.689L62.8639 172.842C65.3845 177.404 68.2967 181.739 71.5676 185.798L88.2145 206.452L120.149 236.658L161.091 266" stroke="black" stroke-width="3" stroke-linecap="round"/>
</svg>
