<svg width="509" height="502" viewBox="0 0 509 502" fill="none" xmlns="http://www.w3.org/2000/svg">
<rect width="509" height="502" rx="20" fill="#CCC3C3"/>
<path d="M254.909 195.479L257.057 184.78C257.625 181.947 258.474 179.178 259.591 176.514C261.904 170.998 265.329 166.017 269.652 161.883L271.451 160.162C275.677 156.12 280.565 152.835 285.903 150.448C292.461 147.516 299.564 146 306.749 146H312.103C315.816 146 319.521 146.364 323.163 147.087C331.943 148.831 340.186 152.625 347.221 158.161L349.256 159.763C354.365 163.783 358.65 168.749 361.879 174.391C365.492 180.704 367.701 187.723 368.356 194.967L369 202.096V208.485C369 216.275 367.989 224.032 365.992 231.561L364.75 236.243C362.859 243.369 360.101 250.236 356.535 256.689L353.136 262.842C350.615 267.404 347.703 271.739 344.432 275.798L327.785 296.452L295.851 326.658L254.909 356" stroke="black" stroke-width="5" stroke-linecap="round"/>
<path d="M254.091 195.479L251.943 184.78C251.375 181.947 250.526 179.178 249.409 176.514C247.096 170.998 243.671 166.017 239.348 161.883L237.549 160.162C233.323 156.12 228.435 152.835 223.097 150.448C216.539 147.516 209.436 146 202.251 146H196.897C193.184 146 189.479 146.364 185.837 147.087C177.057 148.831 168.814 152.625 161.779 158.161L159.744 159.763C154.635 163.783 150.35 168.749 147.121 174.391C143.508 180.704 141.299 187.723 140.644 194.967L140 202.096V208.485C140 216.275 141.011 224.032 143.008 231.561L144.25 236.243C146.141 243.369 148.899 250.236 152.465 256.689L155.864 262.842C158.385 267.404 161.297 271.739 164.568 275.798L181.215 296.452L213.149 326.658L254.091 356" stroke="black" stroke-width="5" stroke-linecap="round"/>
</svg>
