<svg width="323" height="323" viewBox="0 0 323 323" fill="none" xmlns="http://www.w3.org/2000/svg">
<circle cx="161.5" cy="161.5" r="161.5" fill="#78D395"/>
<path d="M74 94.5L69.5 97V109.5L74 120.5L83 127L100 131.5L106.5 136.5L112.5 148.5L115 157.5V167.5L116.5 178L120.5 187L124.25 192.25M124.25 192.25L128 197.5L137 206.5L145.5 211.5L151 215.5L152.5 240.5L148 249L154.5 251.5L164 249L167 241V229L168.5 223L179.5 226.5L186.5 229L183.5 219.5L185 211.5L192 203.5M124.25 192.25L128 219.5L130.5 234.5L126 243L128 249H139L144 241V229L145.5 211.5M167 247.5C167 248.7 173.833 249.5 178 249M178 249L183.5 239L195 236L188 229M178 249L185 251.5H208L218 249L226.5 239L228.5 223L226 204.5L235.5 195.5L246.5 172.5L252.5 156L251 148.5H246.5L240 162.5L233 176.5L226 187L218 194L192 176.5L172 159.5L156 141M156 141L148 147L139 144L133 131.5L134.5 117.5L139 100L145.5 83.5H154L166.5 96L176 109.5V117.5L170 127L156 141Z" stroke="black" stroke-width="2" stroke-linecap="round"/>
<path d="M74.5 94.5H90.5L96.5 89L99 83L104.5 78.5L114.5 74.5H126.5L137 78L145.5 83.5M111 85.5H116L118.5 88" stroke="black" stroke-width="2" stroke-linecap="round"/>
<ellipse cx="112.564" cy="95.911" rx="5.09077" ry="5.72206" transform="rotate(9.64996 112.564 95.911)" fill="black"/>
<path d="M70.1044 107.5C67.8024 105.498 67.5676 99.9173 70.1044 96.9999C72.6411 94.0826 80.8025 92.4983 83.1045 94.5C85.4065 96.5017 82.0369 100.035 79.5002 102.953C76.9634 105.87 72.4064 109.502 70.1044 107.5Z" fill="black"/>
</svg>
